# xmcd
# 
# Track frame offsets:
#     150
#     450
#     4237
#     22810
#     48022
#     52920
#     78422
#     95137
#     116032
#     122017
#     145945
#     146245
#     166997
#     187672
#     193945
#     219607
#     259467
#     267357
#     292760
# 
# Disc length: 4015
# 
# Revision: 12
# Processed by: cddbd v1.5.2PL0 Copyright (c) Steve Scherf et al.
# Submitted via: fre:ac v1.0.27
# 
DISCID=0a0fad13
DTITLE=安室 奈美恵 - SWEET 19 BLUES
DYEAR=1996
DGENRE=J-POP
TTITLE0=01-watch your step!!
TTITLE1=02-motion (Instrumental)
TTITLE2=03-LET'S DO THE MOTION
TTITLE3=04-PRIVATE
TTITLE4=05-Interlude～Ocean way
TTITLE5=06-Don't wanna cry (Eighteen's Summer Mix)
TTITLE6=07-Rainy DANCE
TTITLE7=08-Chase the Chance (CC Mix)
TTITLE8=09-Interlude～Joy
TTITLE9=10-I'LL JUMP
TTITLE10=11-Interlude～Scratch Voices
TTITLE11=12-i was a fool
TTITLE12=13-present
TTITLE13=14-Interlude～Don't wanna cry Shymphonic Style
TTITLE14=15-You're my sunshine (Hollywood Mix)
TTITLE15=16-Body Feels EXIT (Latin House Mix)
TTITLE16=17-'77〜 (Instrumental)
TTITLE17=18-SWEET 19 BLUES
TTITLE18=19-...soon nineteen
EXTD=YEAR: 1996
EXTT0=
EXTT1=
EXTT2=
EXTT3=
EXTT4=
EXTT5=
EXTT6=
EXTT7=
EXTT8=
EXTT9=
EXTT10=
EXTT11=
EXTT12=
EXTT13=
EXTT14=
EXTT15=
EXTT16=
EXTT17=
EXTT18=
PLAYORDER=
